<svg width="181" height="215" viewBox="0 0 181 215" fill="none" xmlns="http://www.w3.org/2000/svg">
<path d="M179.814 55.1706C179.704 49.3856 179.599 43.9206 179.599 38.6336C179.599 34.4916 176.242 31.1336 172.099 31.1336C140.024 31.1336 115.603 21.9156 95.2472 2.12363C92.3352 -0.708375 87.7012 -0.707375 84.7902 2.12363C64.4362 21.9156 40.0192 31.1336 7.94618 31.1336C3.80418 31.1336 0.446175 34.4916 0.446175 38.6336C0.446175 43.9216 0.342175 49.3886 0.231175 55.1746C-0.796825 109.011 -2.20482 182.742 87.5622 213.857C88.3582 214.133 89.1882 214.271 90.0182 214.271C90.8482 214.271 91.6792 214.133 92.4742 213.857C182.248 182.741 180.842 109.008 179.814 55.1706ZM90.0192 198.812C13.0322 170.845 14.1962 109.58 15.2292 55.4606C15.2912 52.2126 15.3512 49.0646 15.3932 45.9786C45.4332 44.7106 69.4552 35.6076 90.0192 17.6936C110.585 35.6076 134.611 44.7116 164.653 45.9786C164.695 49.0636 164.755 52.2096 164.817 55.4556C165.849 109.577 167.012 170.844 90.0192 198.812Z" fill="white"/>
<path d="M115.846 81.0816L79.6472 117.279L64.2002 101.832C61.2712 98.9036 56.5222 98.9036 53.5942 101.832C50.6652 104.762 50.6652 109.51 53.5942 112.439L74.3442 133.189C75.8082 134.653 77.7282 135.385 79.6472 135.385C81.5662 135.385 83.4862 134.653 84.9502 133.189L126.451 91.6886C129.381 88.7596 129.381 84.0106 126.452 81.0826C123.524 78.1536 118.775 78.1526 115.846 81.0816Z" fill="white"/>
</svg>
