<svg width="403" height="512" viewBox="0 0 403 512" fill="none" xmlns="http://www.w3.org/2000/svg">
<path d="M380.745 0H21.695C9.762 0 0 9.763 0 21.695V490.305C0 502.237 9.763 512 21.695 512C33.627 512 43.39 502.237 43.39 490.305V43.39H268.32L149.695 90.034C142.102 93.288 136.678 100.881 136.678 109.559V402.44C136.678 411.118 141.017 418.711 149.695 421.965L373.153 509.829C375.322 510.914 378.577 510.914 380.746 510.914C381.206 510.914 381.662 510.897 382.115 510.871C382.322 510.86 382.527 510.845 382.733 510.829C382.906 510.815 383.077 510.798 383.249 510.78C386.718 510.442 390.052 509.41 392.678 507.66C397.115 505.441 400.037 501.205 401.449 496.672C401.454 496.657 401.459 496.642 401.464 496.627C401.487 496.554 401.507 496.481 401.529 496.407C402.119 494.499 402.441 492.456 402.441 490.304V21.695C402.44 9.763 392.678 0 380.745 0ZM178.983 123.661L359.051 53.575V458.425L178.983 388.339V123.661Z" fill="white"/>
<path d="M225.627 232.136C213.695 232.136 203.932 241.899 203.932 253.831V256C203.932 267.932 213.695 277.695 225.627 277.695C237.559 277.695 247.322 269.017 247.322 256V253.831C247.322 241.898 237.559 232.136 225.627 232.136Z" fill="white"/>
</svg>
