<svg width="136" height="186" viewBox="0 0 136 186" fill="none" xmlns="http://www.w3.org/2000/svg">
<path d="M70.558 31.553V8.604L130.674 43.313L133.657 38.146L67.575 0L1.492 38.152L4.475 43.319L64.591 8.61V31.559L0 68.852V146.881L67.575 185.898L135.15 146.881V68.852L70.558 31.553ZM61.578 107.75L5.967 139.607V75.899L61.578 107.75ZM64.591 112.905V177.288L8.61 144.971L64.591 112.905ZM70.558 112.899L126.533 144.965L70.558 177.288V112.899V112.899ZM73.578 107.75L129.183 75.899V139.601L73.578 107.75ZM70.558 78.363V38.445L126.354 70.654L67.58 104.319L8.807 70.654L64.591 38.445V78.363H70.558Z" fill="white"/>
</svg>
